<?xml version="1.0" standalone="no"?><svg xmlns="http://www.w3.org/2000/svg" viewBox="0 0 1440 320"><path fill="#0099ff" fill-opacity="1" d="M0,288L40,266.7C80,245,160,203,240,202.7C320,203,400,245,480,218.7C560,192,640,96,720,74.7C800,53,880,107,960,128C1040,149,1120,139,1200,112C1280,85,1360,43,1400,21.3L1440,0L1440,320L1400,320C1360,320,1280,320,1200,320C1120,320,1040,320,960,320C880,320,800,320,720,320C640,320,560,320,480,320C400,320,320,320,240,320C160,320,80,320,40,320L0,320Z"></path></svg>